<?xml version="1.0" ?><!DOCTYPE svg  PUBLIC '-//W3C//DTD SVG 1.1//EN'  'http://www.w3.org/Graphics/SVG/1.1/DTD/svg11.dtd'><svg enable-background="new 0 0 64 64" height="64px" id="Layer_1" version="1.1" viewBox="0 0 64 64" width="64px" xml:space="preserve" xmlns="http://www.w3.org/2000/svg" xmlns:xlink="http://www.w3.org/1999/xlink"><g><g><path d="M34.449,0.046c-10.339,0-18.723,8.384-18.723,18.723c0,7.753,4.698,14.391,11.394,17.233    c0,0,0.043,0.014,0.114,0.055c0.464,0.24,2.25,1.252,2.502,3.209c0.015,0.141,0.028,0.309,0.028,0.465c0,2.602,0,10.621,0,10.621    s0.015,0.154-0.028,0.434c-0.069,0.479-0.266,1.324-0.843,2.463c-0.774,1.098-1.238,2.447-1.238,3.91    c0,3.756,3.039,6.795,6.794,6.795c3.754,0,6.81-3.039,6.81-6.795c0-1.068-0.238-2.066-0.688-2.969    c-0.172-0.266-0.312-0.52-0.438-0.76c-0.014-0.027-0.028-0.041-0.041-0.068c-0.889-1.717-0.93-2.785-0.93-2.984    c0-0.012,0-0.025,0-0.025s0-8.02,0-10.621c0-2.209,1.913-3.35,2.489-3.656c0.042-0.018,0.072-0.029,0.099-0.045    c0.016,0,0.042-0.014,0.07-0.027c6.681-2.855,11.365-9.496,11.365-17.233C53.186,8.431,44.803,0.046,34.449,0.046z M34.456,32    c-7.414,0-13.422-6.01-13.422-13.423S27.042,5.155,34.456,5.155c7.413,0,13.422,6.008,13.422,13.422S41.869,32,34.456,32z" fill="#241F20"/></g><g><path d="M44.375,14.613c-0.207,0.189-12.239,11.289-14.656,13.549c1.862,1.069,3.944,1.155,4.894,1.118    c0.795-0.746,7.204-6.768,10.505-9.787C45.317,17.343,44.73,15.497,44.375,14.613z" fill="#241F20"/></g><g><path d="M43.245,12.511c-2.272,2.054-13.225,12.172-15.183,13.993c0,0,0,0-0.259,0.233    c-0.015,0-0.028,0.027-0.055,0.027c-0.028,0.041-0.055,0.069-0.096,0.096c-0.766-0.588-1.876-1.999-1.876-1.999l0.233-0.191    c0.629-0.603,14.168-13.089,15.374-14.199C41.918,10.951,42.644,11.648,43.245,12.511z" fill="#241F20"/></g><g><path d="M27.803,26.736c-0.028,0.027-0.042,0.04-0.042,0.04s0,0-0.013-0.013    C27.775,26.763,27.789,26.736,27.803,26.736z" fill="#241F20"/></g><g><path d="M53.306,42.305c0,0,0.614,6.889,8.14,8.32c-2.834-0.52-8.594,4.49-8.38,8.191    c-0.141-2.752-3.068-7.775-8.139-8.32C47.393,50.699,52.794,47.229,53.306,42.305z" fill="#241F20"/></g><g><path d="M8.373,21.949c0,0,0.425,4.784,5.651,5.778c-1.969-0.36-5.967,3.119-5.82,5.687    c-0.096-1.909-2.13-5.398-5.65-5.777C4.266,27.778,8.018,25.369,8.373,21.949z" fill="#241F20"/></g><g><path d="M16.146,34.047c0,0,0.613,6.889,8.139,8.32c-2.834-0.518-8.594,4.492-8.38,8.193    c-0.141-2.752-3.068-7.777-8.138-8.32C10.233,42.441,15.634,38.973,16.146,34.047z" fill="#241F20"/></g></g></svg>